#!OML:ASF F:\VICON\USERDATA\INSTALL\rory3\rory3.ASF
:FULLY-SPECIFIED
:DEGREES
215
root 1.20707 17.2582 -17.2914 1.93045 0.497369 -0.403683
lowerback 10.7718 -0.216492 -0.163452
upperback 1.11666 -0.167272 2.67165
thorax -4.86832 -0.0545057 2.91086
lowerneck -19.4057 -4.43986 -9.44822
upperneck 13.1865 -4.69676 7.08372
head 7.63276 -2.05355 3.31057
rclavicle -2.38542e-015 -8.74653e-015
rhumerus -36.7325 -17.0367 -74.3243
rradius 27.4829
rwrist 13.0533
rhand -12.3318 11.7057
rfingers 7.12502
rthumb 13.7373 -17.8208
lclavicle -2.38542e-015 -8.74653e-015
lhumerus -33.8534 16.7132 83.4478
lradius 22.3869
lwrist -21.1753
lhand -11.371 28.1413
lfingers 7.12502
lthumb 14.6631 57.6028
rfemur -16.3262 0.89736 21.0382
rtibia 38.1143
rfoot -17.1361 -9.78994
rtoes -2.21428
lfemur -17.1626 1.73585 -20.2439
ltibia 37.9756
lfoot -19.0077 0.948004
ltoes -0.305542
216
root 1.21485 17.3054 -17.285 1.93545 0.552774 -0.301461
lowerback 10.547 -0.212357 -0.201142
upperback 1.12234 -0.171159 2.63548
thorax -4.73676 -0.0571849 2.89173
lowerneck -19.6475 -4.48157 -9.44013
upperneck 13.2384 -4.73801 7.09977
head 7.6945 -2.06667 3.3077
rclavicle -6.65929e-015 1.59028e-015
rhumerus -36.913 -16.8175 -74.4922
rradius 28.0257
rwrist 11.7986
rhand -12.0351 10.0922
rfingers 7.12502
rthumb 14.0232 -19.4147
lclavicle -6.65929e-015 1.59028e-015
lhumerus -34.2031 16.4608 83.5985
lradius 22.6644
lwrist -20.1128
lhand -10.6163 28.7854
lfingers 7.12502
lthumb 15.3901 58.1925
rfemur -15.5989 1.13022 20.9033
rtibia 36.8593
rfoot -16.6144 -9.90595
rtoes -1.90502
lfemur -16.4346 1.27302 -20.4119
ltibia 36.7499
lfoot -18.5228 1.28671
ltoes -0.127565
217
root 1.22281 17.3491 -17.2856 2.0896 0.370824 -0.367087
lowerback 10.347 -0.137657 -0.120314
upperback 0.984724 -0.0619113 2.64412
thorax -4.77497 -0.00347963 2.83847
lowerneck -19.826 -4.52821 -9.36217
upperneck 13.4325 -4.7983 7.00759
head 7.7898 -2.09743 3.25576
rclavicle -1.15295e-014 2.38542e-015
rhumerus -37.3245 -16.5083 -74.5899
rradius 28.6449
rwrist 10.7474
rhand -11.8132 9.16857
rfingers 7.12502
rthumb 14.237 -20.3235
lclavicle -1.15295e-014 2.38542e-015
lhumerus -34.7571 16.2852 83.6446
lradius 23.1173
lwrist -19.1737
lhand -8.95519 31.1097
lfingers 7.12502
lthumb 16.9896 60.3867
rfemur -15.1325 1.60715 20.956
rtibia 35.6529
rfoot -16.0903 -10.0291
rtoes -1.33337
lfemur -15.967 1.03638 -20.3882
ltibia 35.6005
lfoot -18.116 1.63665
ltoes -0.334629
218
root 1.23004 17.3909 -17.2794 2.23609 0.228197 -0.465629
lowerback 10.0108 -0.120764 -0.00382153
upperback 0.877527 -0.0284376 2.6527
thorax -4.7011 0.01093 2.77424
lowerneck -19.96 -4.54138 -9.33024
upperneck 13.7579 -4.8155 6.94395
head 7.9198 -2.10885 3.22787
rclavicle -5.76476e-015 -1.27222e-014
rhumerus -37.7798 -16.2933 -74.6072
rradius 29.0406
rwrist 10.0963
rhand -11.8241 9.58126
rfingers 7.12502
rthumb 14.2265 -19.9115
lclavicle -5.76476e-015 -1.27222e-014
lhumerus -35.3252 16.6899 83.2975
lradius 23.2253
lwrist -18.6727
lhand -8.05095 31.7576
lfingers 7.12502
lthumb 17.8598 60.9575
rfemur -14.6748 2.09634 21.0521
rtibia 34.4887
rfoot -15.4977 -10.2643
rtoes -1.26779
lfemur -15.503 0.786183 -20.3097
ltibia 34.5218
lfoot -17.7228 1.85572
ltoes 0.452978
219
root 1.24094 17.4327 -17.2701 2.32624 0.11706 -0.497501
lowerback 9.55949 -0.14636 0.115013
upperback 0.861002 -0.0575472 2.62992
thorax -4.4648 -0.00756585 2.68245
lowerneck -19.8664 -4.49218 -9.43191
upperneck 13.8549 -4.75946 7.08422
head 7.93792 -2.07623 3.30116
rclavicle -1.49089e-015 5.56597e-015
rhumerus -37.9704 -16.3013 -74.5555
rradius 28.9579
rwrist 9.83071
rhand -12.2022 10.5542
rfingers 7.12502
rthumb 13.8622 -18.9638
lclavicle -1.49089e-015 5.56597e-015
lhumerus -35.8335 16.9985 82.9311
lradius 23.1329
lwrist -17.5652
lhand -8.65914 29.7769
lfingers 7.12502
lthumb 17.2745 59.0291
rfemur -14.158 2.43596 21.0505
rtibia 33.3413
rfoot -14.9551 -10.357
rtoes -1.17115
lfemur -15.0046 0.43455 -20.3338
ltibia 33.4941
lfoot -17.2527 2.18709
ltoes 0.61336
220
root 1.24859 17.4711 -17.2676 2.433 -0.113769 -0.53171
lowerback 9.2979 -0.113377 0.0935356
upperback 0.760412 -0.015758 2.67756
thorax -4.42546 0.0142514 2.73733
lowerneck -19.6997 -4.46763 -9.56325
upperneck 13.9264 -4.72333 7.1642
head 7.93582 -2.06203 3.35649
rclavicle 2.18663e-015 5.56597e-015
rhumerus -38.1528 -16.2151 -74.4456
rradius 29.0287
rwrist 9.72697
rhand -12.2329 10.714
rfingers 7.12502
rthumb 13.8326 -18.806
lclavicle 2.18663e-015 5.56597e-015
lhumerus -36.3087 16.8525 82.9638
lradius 23.2045
lwrist -15.957
lhand -9.23335 29.2869
lfingers 7.12502
lthumb 16.7218 58.5867
rfemur -13.7134 2.82908 21.0547
rtibia 32.2589
rfoot -14.4852 -10.392
rtoes -1.04494
lfemur -14.5528 0.221217 -20.3499
ltibia 32.4716
lfoot -16.8031 2.5551
ltoes 0.02159
221
root 1.25417 17.5053 -17.2655 2.56514 -0.244523 -0.574278
lowerback 9.0491 -0.101983 0.000494408
upperback 0.607147 -0.00586549 2.77844
thorax -4.4467 0.0230162 2.89339
lowerneck -19.6509 -4.50359 -9.62443
upperneck 14.1825 -4.75082 7.05502
head 8.01421 -2.09144 3.328
rclavicle 1.07344e-014 7.15625e-015
rhumerus -38.4881 -15.6802 -74.4487
rradius 29.5928
rwrist 9.35355
rhand -11.9807 9.85984
rfingers 7.12502
rthumb 14.0756 -19.6435
lclavicle 1.07344e-014 7.15625e-015
lhumerus -36.7194 16.8625 82.9954
lradius 23.1707
lwrist -15.1582
lhand -9.02871 29.9646
lfingers 7.12502
lthumb 16.9188 59.2476
rfemur -13.3367 3.1527 21.0729
rtibia 31.2953
rfoot -14.0741 -10.4743
rtoes -0.967992
lfemur -14.1167 0.0385331 -20.328
ltibia 31.4517
lfoot -16.4457 2.75963
ltoes 0.390151
